<svg width="530" height="447" viewBox="0 0 530 447" fill="none" xmlns="http://www.w3.org/2000/svg">
<path d="M496.112 0.276672H8.10773V312.831H496.112V0.276672Z" fill="#E6E6E6"/>
<path d="M482.158 39.4788H22.0621V294.34H482.158V39.4788Z" fill="white"/>
<path d="M495.904 0H7.89935V20.7332H495.904V0Z" fill="#64D959"/>
<path d="M23.3059 14.4426C25.4281 14.4426 27.1484 12.7222 27.1484 10.5999C27.1484 8.47759 25.4281 6.75714 23.3059 6.75714C21.1837 6.75714 19.4633 8.47759 19.4633 10.5999C19.4633 12.7222 21.1837 14.4426 23.3059 14.4426Z" fill="white"/>
<path d="M37.8913 14.4426C40.0134 14.4426 41.7338 12.7222 41.7338 10.5999C41.7338 8.47759 40.0134 6.75714 37.8913 6.75714C35.7691 6.75714 34.0487 8.47759 34.0487 10.5999C34.0487 12.7222 35.7691 14.4426 37.8913 14.4426Z" fill="white"/>
<path d="M52.4766 14.4426C54.5988 14.4426 56.3192 12.7222 56.3192 10.5999C56.3192 8.47759 54.5988 6.75714 52.4766 6.75714C50.3545 6.75714 48.6341 8.47759 48.6341 10.5999C48.6341 12.7222 50.3545 14.4426 52.4766 14.4426Z" fill="white"/>
<path d="M521.918 402.528L525.504 416.874L509.726 421.178L508.291 406.115L521.918 402.528Z" fill="#FBBEBE"/>
<path d="M464.539 420.461V434.089L448.759 436.958L445.89 429.785L451.628 417.592L464.539 420.461Z" fill="#FBBEBE"/>
<path d="M496.097 271.984L493.946 291.35L495.38 328.649C495.38 328.649 495.38 332.235 497.532 333.67C498.686 334.454 524.07 405.398 524.07 405.398C524.07 405.398 518.332 412.571 507.573 410.419L505.422 403.246C505.422 403.246 502.553 393.921 501.118 391.769C499.684 389.618 478.166 345.864 478.166 345.864L468.125 327.932L465.256 352.319C465.256 352.319 470.994 383.162 469.559 397.508C468.125 411.853 465.256 426.916 465.256 426.916L448.042 424.047C447.964 421.732 447.217 419.49 445.89 417.592C443.738 414.722 444.456 404.68 444.456 404.68V402.529L440.152 347.298L432.263 274.853L496.097 271.984Z" fill="#2F2E41"/>
<path d="M447.325 141.439C458.02 141.439 466.69 132.768 466.69 122.072C466.69 111.376 458.02 102.706 447.325 102.706C436.629 102.706 427.959 111.376 427.959 122.072C427.959 132.768 436.629 141.439 447.325 141.439Z" fill="#FBBEBE"/>
<path d="M464.18 122.431L472.07 141.797L453.422 155.426L441.945 135.342L464.18 122.431Z" fill="#FBBEBE"/>
<path d="M465.256 137.135L472.428 133.549L476.732 143.591C476.732 143.591 504.704 152.198 502.553 191.648C500.401 231.099 495.38 246.162 495.38 246.162C495.38 246.162 507.573 271.984 500.401 274.853C493.228 277.722 432.262 288.481 430.828 278.439C429.393 268.397 435.849 209.58 435.849 209.58C435.849 209.58 433.697 167.261 451.628 158.654L448.042 150.764L465.256 137.135Z" fill="#3F3D56"/>
<path d="M425.807 276.287C425.807 276.287 409.311 293.502 418.635 297.806C427.959 302.11 433.697 278.439 433.697 278.439L425.807 276.287Z" fill="#FBBEBE"/>
<path d="M459.518 430.503L467.408 427.633C467.408 427.633 476.015 447 468.842 447H450.194C450.194 447 439.435 443.414 433.697 443.414C427.959 443.414 417.2 432.654 425.09 427.633C432.98 422.613 443.021 424.047 443.021 424.047L445.89 417.592L449.477 427.633C449.477 427.633 453.78 434.806 459.518 430.503Z" fill="#2F2E41"/>
<path d="M517.615 414.722C517.615 414.722 522.106 411.888 524.523 412.947C526.939 414.005 528.374 425.482 528.374 425.482C528.374 425.482 535.546 434.089 519.767 435.524C503.987 436.958 500.401 434.089 498.966 429.785C497.532 425.482 500.401 421.178 500.401 421.178L504.704 419.743C504.704 419.743 509.725 416.157 508.291 414.722C506.856 413.288 508.291 410.419 508.291 410.419C508.291 410.419 513.311 420.461 517.615 414.722Z" fill="#2F2E41"/>
<path d="M453.949 121.762C453.87 121.135 453.729 120.518 453.527 119.919C452.486 117.735 448.425 118.373 447.702 116.064C447.56 115.613 447.59 115.121 447.451 114.669C447.097 113.514 445.74 112.942 444.534 112.997C443.338 113.162 442.164 113.465 441.037 113.898C438.2 114.703 435.181 114.396 432.249 114.082C430.941 114.038 429.659 113.704 428.496 113.105C427.386 112.422 426.585 111.046 426.99 109.806C427.377 108.618 428.678 107.965 429.263 106.86C430.191 105.105 429.056 102.839 429.81 101.002C431.018 98.0556 435.591 98.6472 437.915 96.4694C438.479 95.9408 438.885 95.265 439.426 94.7125C441.029 93.0731 443.562 92.7558 445.844 92.982C448.127 93.2081 450.369 93.8783 452.662 93.8378C454.837 93.7993 457.116 93.1371 459.12 93.9829C460.298 94.5859 461.333 95.4359 462.153 96.475L467.293 102.112C467.998 102.777 468.542 103.596 468.881 104.505C469.19 105.585 468.906 106.744 469.038 107.86C469.338 110.404 471.72 112.326 472.042 114.868C472.107 115.656 472.068 116.45 471.928 117.228L471.209 122.536C471.172 123.054 471.035 123.559 470.803 124.024C470.594 124.381 470.277 124.664 470.041 125.005C469.376 125.968 469.437 127.24 469.106 128.362C468.775 129.485 467.589 130.596 466.552 130.055C465.875 129.702 465.428 126.783 464.606 126.025C463.461 124.97 462.862 125.1 461.449 125.118C458.618 125.153 454.854 125.396 453.949 121.762Z" fill="#2F2E41"/>
<path d="M457.366 163.675C457.366 163.675 478.884 172.282 472.428 191.648C465.973 211.015 448.759 270.549 448.759 270.549L438.718 275.57L435.849 283.46L422.221 278.439L424.373 267.68L429.394 256.921L442.304 176.586C442.304 176.586 442.304 162.957 457.366 163.675Z" fill="#3F3D56"/>
<path opacity="0.1" d="M473.504 195.593L451.27 271.625L441.945 280.95L447.325 271.266L473.504 195.593Z" fill="black"/>
<path d="M35.7268 207.89L39.9192 237.704L57.6205 269.381C62.7445 274.04 58.0863 285.22 58.0863 285.22L53.4281 281.959L52.4964 276.369C52.4964 276.369 32.0002 253.077 26.8762 247.487C21.7521 241.897 19.8888 211.151 19.8888 211.151L35.7268 207.89Z" fill="#FBBEBE"/>
<path d="M20.299 410.074C20.299 410.074 21.2307 420.788 20.7649 423.583C20.299 426.378 6.32437 423.117 6.32437 423.117C8.65348 418.459 10.0509 404.484 10.0509 404.484L20.299 410.074Z" fill="#FBBEBE"/>
<path d="M89.7066 412.869C89.7066 412.869 91.104 427.776 90.6382 430.571C90.1724 433.366 76.1977 430.105 76.1977 430.105C78.5268 425.446 79.9243 411.471 79.9243 411.471L89.7066 412.869Z" fill="#FBBEBE"/>
<path d="M61.1609 173.891C70.5184 173.891 78.1042 166.305 78.1042 156.947C78.1042 147.589 70.5184 140.003 61.1609 140.003C51.8033 140.003 44.2175 147.589 44.2175 156.947C44.2175 166.305 51.8033 173.891 61.1609 173.891Z" fill="#FBBEBE"/>
<path d="M64.0863 172.959C61.2914 176.686 62.6889 183.208 62.6889 183.208C62.6889 183.208 34.2737 216.283 29.1497 216.283C24.0257 216.283 24.9573 192.99 24.9573 192.99C24.9573 192.99 32.4104 184.139 36.6028 182.276C40.7953 180.413 48.2484 160.381 48.2484 160.381C48.2484 160.381 66.8813 169.232 64.0863 172.959Z" fill="#FBBEBE"/>
<path d="M83.185 236.314L101.419 266.945C104.747 272.42 98.5572 300.134 98.5572 300.134L95.7622 359.297L91.104 418.91V425.432L75.7319 424.966L70.6078 361.16L63.1547 313.178L51.0433 349.98L31.013 395.167C29.3027 400.74 27.201 406.186 24.7234 411.464L20.9969 417.986L7.02591 416.352L28.218 344.855L32.4104 298.271C32.8763 272.184 41.2611 257.743 41.2611 257.743V252.153L83.185 236.314Z" fill="#2F2E41"/>
<path d="M19.3674 421.254C19.3674 421.254 21.6965 417.527 21.6965 418.925C21.6965 420.322 27.7522 424.049 27.7522 424.049C27.7522 424.049 33.8079 423.117 34.7395 430.105C35.6712 437.093 26.3547 438.49 24.0256 438.024C21.6965 437.558 15.6408 438.49 15.6408 438.49C15.6408 438.49 10.9826 439.422 3.52943 438.49C-3.92372 437.558 2.59779 424.981 3.52943 422.651C4.46108 420.322 9.1193 422.186 9.1193 422.186C17.5041 424.515 19.3674 421.254 19.3674 421.254Z" fill="#2F2E41"/>
<path d="M89.2407 428.241C89.2407 428.241 91.5698 424.515 91.5698 425.912C91.5698 427.31 97.6255 431.036 97.6255 431.036C97.6255 431.036 103.681 430.105 104.613 437.092C105.545 444.08 96.2281 445.478 93.8989 445.012C91.5698 444.546 85.5141 445.478 85.5141 445.478C85.5141 445.478 80.8559 446.409 73.4028 445.478C65.9496 444.546 72.4711 431.968 73.4028 429.639C74.3344 427.31 78.9926 429.173 78.9926 429.173C87.3774 431.502 89.2407 428.241 89.2407 428.241Z" fill="#2F2E41"/>
<path d="M57.099 182.742C68.7445 170.63 81.3217 200.91 81.3217 200.91C81.3217 200.91 85.5141 212.09 82.2534 218.146C78.9926 224.202 85.5141 237.711 85.5141 237.711C69.5617 251.292 53.6649 263.848 38.9319 254.948C40.7952 243.767 34.7395 238.177 30.5471 227.463C26.3547 216.748 18.4357 219.078 18.4357 219.078C18.4357 219.078 18.9015 206.966 20.299 197.183C21.6965 187.4 34.2737 183.727 34.2737 183.727C36.5538 187.823 45.4534 194.854 57.099 182.742Z" fill="#3F3D56"/>
<path d="M77.5952 202.307L81.7876 232.121L99.4889 263.799C104.613 268.457 99.9547 279.637 99.9547 279.637L95.2965 276.376L94.3648 270.786C94.3648 270.786 73.8686 247.494 68.7446 241.904C63.6205 236.314 61.7572 205.568 61.7572 205.568L77.5952 202.307Z" fill="#FBBEBE"/>
<path d="M80.3901 206.966L60.8256 209.295C60.8256 209.295 59.4281 186.469 62.3824 180.768C65.3367 175.067 76.1977 181.344 76.1977 181.344C78.9926 181.81 80.3901 206.966 80.3901 206.966Z" fill="#3F3D56"/>
<path d="M80.1291 147.136C67.5997 153.399 74.8285 170.498 73.3497 177.673C70.9276 189.424 35.2094 183.452 35.2094 183.452C30.8637 182.671 28.2153 134.32 52.0143 134.747C64.0105 134.963 90.8614 141.772 80.1291 147.136Z" fill="#2F2E41"/>
<path d="M72.4909 162.003C73.4544 162.003 74.2354 160.754 74.2354 159.212C74.2354 157.67 73.4544 156.421 72.4909 156.421C71.5274 156.421 70.7464 157.67 70.7464 159.212C70.7464 160.754 71.5274 162.003 72.4909 162.003Z" fill="#FBBEBE"/>
<path d="M141.081 99.4892C159.496 102.888 178.281 99.4892 196.62 97.1863L252.353 90.2079C254.607 89.9218 257.887 88.575 259.213 91.3314C259.96 92.8736 259.457 96.2163 259.513 97.9888C259.659 102.874 259.645 107.759 259.513 112.643C259.262 121.981 258.578 131.297 257.706 140.592C256.01 158.785 253.609 176.88 252.409 195.142C251.795 204.437 251.488 213.76 251.76 223.056C251.823 225.275 251.914 227.494 252.046 229.706C252.193 232.183 253.302 235.861 250.602 237.515C249.06 238.464 246.024 238.415 244.259 238.694C241.468 239.134 238.676 239.483 235.829 239.769C217.065 241.646 198.057 240.864 179.223 240.753L122.352 240.46L108.48 240.383C107.224 240.383 102.695 241.137 101.92 239.643C101.592 239.008 102.465 236.035 102.618 235.24C102.832 233.928 103.065 232.618 103.316 231.311C104.935 222.134 106.847 213.014 108.773 203.9C112.911 184.36 117.146 164.723 118.849 144.765C119.693 134.751 119.135 124.646 120.168 114.653C120.649 110.013 121.222 99.6566 127.397 99.2449C132.631 98.896 138.018 99.2449 143.265 99.2449C143.543 99.2449 143.809 99.1346 144.005 98.9383C144.202 98.742 144.312 98.4758 144.312 98.1982C144.312 97.9205 144.202 97.6543 144.005 97.458C143.809 97.2617 143.543 97.1514 143.265 97.1514C138.311 97.1514 133.349 97.0188 128.395 97.1165C125.101 97.1793 122.813 97.9609 121.242 100.99C117.23 108.763 117.642 119.133 117.516 127.619C117.216 147.933 114.097 167.815 110.036 187.682C107.991 197.682 105.786 207.647 103.755 217.654C102.799 222.434 101.885 227.229 101.048 232.037C100.657 234.326 98.6824 239.371 100.42 241.472C102.157 243.572 107.503 242.441 109.896 242.455L126.546 242.553L158.45 242.735C179.063 242.853 199.746 243.432 220.352 242.825C230.191 242.532 240.588 242.127 250.169 239.776C253.023 239.078 254.398 237.766 254.51 234.723C254.677 230.006 253.91 225.142 253.812 220.404C253.114 179.859 262.639 139.88 261.662 99.3217C261.599 96.5652 262.639 89.6147 259.625 87.9469C258.271 87.1932 256.512 87.605 255.089 87.7725C252.367 88.0865 249.653 88.4703 246.931 88.7913L211.588 93.2016C200.29 94.5973 189 96.1046 177.681 97.3887C165.7 98.7843 153.6 99.6148 141.66 97.3887C140.341 97.1444 139.776 99.1612 141.102 99.4054L141.081 99.4892Z" fill="#E6E6E6"/>
<path d="M118.863 124.158L258.299 117.319C259.645 117.249 259.652 115.156 258.299 115.225L118.863 122.064C117.523 122.127 117.516 124.221 118.863 124.158Z" fill="#E6E6E6"/>
<path d="M161.82 106.9C161.43 107.313 161.147 107.816 160.995 108.363C160.844 108.911 160.828 109.487 160.95 110.042C161.071 110.597 161.327 111.114 161.694 111.548C162.061 111.982 162.528 112.32 163.055 112.532C164.932 113.39 167.137 112.671 169 112.204C171.792 111.506 174.583 110.885 177.451 110.375C183.693 109.27 190.016 108.682 196.354 108.617C199.243 108.582 202.111 108.715 205 108.84C207.094 108.924 209.348 109.091 211.12 107.793C213.144 106.314 213.8 103.425 211.818 101.625C209.027 99.0774 203.011 100.557 199.788 100.822C188.089 101.794 176.467 103.528 164.995 106.014C163.683 106.293 164.234 108.317 165.553 108.031C173.122 106.398 180.749 105.086 188.434 104.095C192.212 103.63 195.996 103.237 199.788 102.916C201.574 102.769 203.36 102.636 205.147 102.532C205.845 102.49 206.584 102.413 207.296 102.434C209.508 102.483 209.766 102.085 208.44 104.758C207.261 107.123 207.638 106.851 205.593 106.775C204.728 106.775 203.863 106.677 202.998 106.635C201.225 106.561 199.453 106.521 197.68 106.516C193.907 106.516 190.144 106.698 186.39 107.061C183.208 107.368 180.033 107.8 176.886 108.359C174.918 108.708 172.964 109.112 171.017 109.559C170.159 109.761 169.293 109.971 168.435 110.187C168.023 110.299 167.605 110.396 167.193 110.501C165.667 111.031 164.367 110.334 163.292 108.408C164.227 107.438 162.755 105.951 161.813 106.928L161.82 106.9Z" fill="#E6E6E6"/>
<path d="M187.095 136.684C176.997 136.293 166.091 139.022 159.44 147.151C154.235 153.509 151.269 164.416 156.782 171.576C162.706 179.252 175.699 177.898 183.536 174.625C191.826 171.136 200.897 163.942 203.388 154.939C206.494 143.697 196.41 135.198 185.908 135.072C185.637 135.082 185.381 135.196 185.192 135.392C185.004 135.587 184.899 135.847 184.899 136.119C184.899 136.39 185.004 136.65 185.192 136.846C185.381 137.041 185.637 137.156 185.908 137.165C191.895 137.235 197.771 139.803 200.562 145.379C203.486 151.255 200.967 157.424 197.073 162.127C190.835 169.615 181.079 175.26 171.143 175.1C165.176 175.009 158.582 172.965 156.733 166.67C155.212 161.569 156.37 155.993 159.022 151.471C164.758 141.701 176.432 138.394 187.136 138.812C188.483 138.861 188.483 136.768 187.136 136.719L187.095 136.684Z" fill="#E6E6E6"/>
<path d="M177.067 152.19C176.637 152.03 176.173 151.982 175.719 152.05C175.265 152.118 174.835 152.3 174.47 152.579C174.105 152.857 173.817 153.224 173.631 153.644C173.446 154.064 173.37 154.524 173.411 154.981C173.62 157.703 176.62 158.47 178.874 158.31C180.821 158.142 183.096 157.424 182.412 154.988C182.286 154.557 182.069 154.158 181.775 153.819C181.482 153.479 181.118 153.207 180.71 153.02C180.085 152.773 179.408 152.689 178.742 152.776C178.484 152.776 176.118 153.641 177.123 152.602L175.476 152.385C175.659 152.566 175.799 152.785 175.886 153.026C175.973 153.268 176.004 153.526 175.978 153.781C175.982 153.963 176.032 154.142 176.125 154.299C176.218 154.456 176.35 154.586 176.508 154.677C176.666 154.768 176.845 154.816 177.028 154.816C177.21 154.817 177.39 154.771 177.549 154.681C177.788 154.581 178.051 154.55 178.307 154.59C178.563 154.631 178.803 154.743 179 154.912C179.196 155.082 179.341 155.303 179.419 155.551C179.497 155.798 179.504 156.063 179.44 156.314C179.383 156.556 179.414 156.81 179.527 157.031C179.64 157.252 179.827 157.426 180.055 157.523C180.284 157.62 180.539 157.633 180.776 157.56C181.013 157.487 181.217 157.332 181.352 157.124C182.049 155.868 182.894 153.369 181.847 152.057C181.149 151.171 179.802 151.436 178.965 151.953C178.448 152.318 177.967 152.732 177.528 153.188C176.683 153.935 176.132 154.283 176.446 152.853C176.969 150.25 179.454 148.177 181.721 147.138L180.186 145.958C179.381 148.983 177.942 151.802 175.965 154.228L177.751 154.967C177.7 154.009 177.946 153.059 178.456 152.246C178.966 151.433 179.714 150.797 180.598 150.424H179.572L180.116 151.318C179.914 152.637 181.931 153.202 182.133 151.869C182.398 150.145 181.31 147.905 179.293 148.75C176.886 149.754 175.637 152.511 175.685 154.967C175.685 155.805 176.872 156.454 177.479 155.714C179.698 153.018 181.318 149.88 182.231 146.51C182.279 146.31 182.269 146.1 182.2 145.906C182.131 145.712 182.008 145.542 181.844 145.417C181.681 145.292 181.485 145.217 181.279 145.202C181.074 145.186 180.869 145.231 180.689 145.33C178.598 146.275 176.832 147.814 175.609 149.754C174.757 151.15 173.69 153.327 174.555 154.932C174.696 155.188 174.886 155.412 175.113 155.594C175.341 155.776 175.602 155.911 175.882 155.992C176.162 156.072 176.456 156.097 176.745 156.065C177.035 156.032 177.315 155.943 177.57 155.802L177.59 155.791C178.236 155.408 178.825 154.939 179.342 154.395C179.6 154.165 179.886 153.767 180.228 153.697C180.535 153.488 180.521 153.607 180.179 154.067C180.175 154.79 179.964 155.497 179.572 156.105L181.484 156.907C181.656 156.256 181.636 155.568 181.426 154.928C181.216 154.287 180.825 153.722 180.3 153.299C179.776 152.876 179.14 152.614 178.469 152.545C177.799 152.475 177.123 152.602 176.523 152.909L178.1 153.816C178.133 152.928 177.854 152.056 177.311 151.353C177.229 151.217 177.117 151.101 176.984 151.015C176.851 150.928 176.701 150.872 176.543 150.851C176.386 150.83 176.226 150.845 176.075 150.895C175.924 150.944 175.786 151.026 175.671 151.136C174.611 152.246 174.408 154.165 175.741 155.191C176.739 155.951 177.228 155.191 178.323 155.016C182.042 154.535 179.872 156.209 178.56 156.265C177.974 156.328 177.381 156.286 176.809 156.14C175.353 155.647 175.262 155.012 176.537 154.235C177.786 154.744 178.323 152.72 177.095 152.218L177.067 152.19Z" fill="#E6E6E6"/>
<path d="M175.385 156.014C176.244 158.805 172.699 159.727 171.017 160.69C169.837 161.351 168.808 162.252 167.996 163.334C166.237 165.693 165.581 168.694 165.002 171.52C164.737 172.839 166.753 173.397 167.026 172.078C167.345 170.002 167.938 167.976 168.791 166.056C170.047 163.558 171.847 162.72 174.192 161.436C176.537 160.152 178.232 158.163 177.402 155.456C177.011 154.172 174.988 154.723 175.385 156.014Z" fill="#E6E6E6"/>
<path d="M178.874 154.611C178.375 154.68 177.92 154.933 177.597 155.321C177.274 155.708 177.108 156.201 177.13 156.705C177.13 157.535 177.681 158.066 178.058 158.729C178.952 160.085 179.635 161.57 180.082 163.132C180.417 164.632 180.745 167.319 179.963 168.715C178.519 171.304 175.909 170.808 173.683 170.808C171.589 170.808 169.97 171.506 170.04 168.589C170.082 166.949 171.226 165.288 172.134 163.997L170.222 163.746C170.625 165.877 170.837 168.04 170.857 170.208C170.857 171.178 172.343 171.716 172.803 170.732C173.925 168.372 174.816 165.908 175.462 163.376L173.404 163.097L173.766 168.401C173.772 168.627 173.851 168.845 173.991 169.024C174.131 169.202 174.324 169.33 174.543 169.389C174.761 169.449 174.993 169.436 175.204 169.354C175.415 169.271 175.593 169.123 175.713 168.931C175.958 168.661 176.137 168.339 176.237 167.989C176.306 167.661 175.664 165.449 175.406 166.237L177.458 166.517L177.604 161.478L175.511 161.757C175.953 163.178 176.087 164.677 175.902 166.154C175.769 167.319 177.73 167.584 177.995 166.433L179.307 159.664L177.395 159.908C177.849 160.844 177.975 161.906 177.751 162.923C177.597 164.263 179.691 164.249 179.844 162.923C180.022 161.533 179.799 160.122 179.202 158.854C179.096 158.68 178.942 158.54 178.757 158.451C178.573 158.363 178.367 158.33 178.164 158.356C177.962 158.383 177.771 158.468 177.616 158.601C177.461 158.734 177.348 158.909 177.29 159.106L175.972 165.875L178.03 166.154C178.239 164.49 178.08 162.801 177.563 161.206C177.493 160.966 177.339 160.758 177.129 160.622C176.92 160.485 176.668 160.428 176.42 160.461C176.172 160.494 175.944 160.614 175.777 160.801C175.61 160.988 175.516 161.228 175.511 161.478L175.364 166.517C175.37 166.767 175.465 167.007 175.632 167.194C175.798 167.381 176.026 167.502 176.274 167.535C176.523 167.569 176.775 167.513 176.985 167.377C177.196 167.242 177.351 167.036 177.423 166.796L177.535 166.454C177.583 166.276 177.584 166.088 177.537 165.909C177.491 165.73 177.398 165.567 177.269 165.435C175.099 163.076 174.66 166.831 173.906 167.87L175.86 168.401L175.497 163.097C175.42 161.967 173.745 161.618 173.438 162.818C172.849 165.178 172.031 167.476 170.996 169.678L172.95 170.208C172.927 167.852 172.694 165.502 172.252 163.188C172.071 162.225 170.808 162.267 170.34 162.937C168.945 164.946 166.53 169.336 168.393 171.743C170.019 173.837 175.134 173.027 177.318 172.895C180.765 172.699 182.015 170.515 182.391 167.263C182.571 165.706 182.484 164.13 182.133 162.602C181.945 161.778 180.04 156.558 179.468 156.663C180.793 156.419 180.228 154.395 178.909 154.639L178.874 154.611Z" fill="#E6E6E6"/>
<path d="M174.82 159.315L169.105 166.859L170.912 167.912L175.099 161.855L173.187 161.046L171.101 169.008C171.045 169.25 171.075 169.503 171.188 169.725C171.301 169.946 171.488 170.12 171.716 170.217C171.945 170.314 172.2 170.327 172.437 170.254C172.675 170.18 172.878 170.026 173.013 169.817C173.962 168.244 175.028 166.744 176.202 165.33L174.457 164.311C173.989 166.114 173.085 167.775 171.827 169.147L173.578 170.166C173.685 169.202 173.942 168.26 174.339 167.375C174.876 166.168 173.173 165.1 172.531 166.314C171.941 167.42 171.267 168.479 170.515 169.482L172.427 169.734L172.852 167.745L170.94 167.494L171.247 169.238C171.298 169.414 171.393 169.573 171.523 169.701C171.654 169.828 171.816 169.92 171.992 169.966C172.169 170.013 172.354 170.013 172.531 169.966C172.707 169.919 172.869 169.827 172.999 169.699C174.769 167.867 176.188 165.727 177.186 163.383H175.385C175.859 164.256 176.191 165.198 176.369 166.175C176.62 167.431 178.288 166.963 178.421 165.895C178.721 163.558 178.874 161.204 178.881 158.847H176.788V163.237C176.788 164.374 178.651 164.709 178.846 163.516C178.985 162.457 179.333 161.437 179.872 160.515H178.037C178.479 161.229 178.72 162.048 178.735 162.888C178.735 163.165 178.845 163.432 179.041 163.628C179.238 163.824 179.504 163.935 179.782 163.935C180.059 163.935 180.325 163.824 180.522 163.628C180.718 163.432 180.828 163.165 180.828 162.888L181.093 161.492H179.077C179.279 162.727 180.047 169.685 177.318 168.868C176.858 168.757 176.725 168.785 176.92 168.945L177.542 167.619L179 164.528L177.046 163.997C177.172 165.435 177.304 167.487 176.439 168.715C175.741 169.713 173.592 170.11 172.496 169.524C171.773 169.009 171.155 168.36 170.675 167.612L169.245 169.008C170.403 169.852 172.28 171.925 173.773 172.043C174.911 172.134 175.867 171.192 176.613 170.438C177.759 169.255 178.652 167.851 179.238 166.312C179.825 164.773 180.093 163.131 180.026 161.485C180.026 161.208 179.915 160.941 179.719 160.745C179.523 160.549 179.257 160.438 178.979 160.438C178.701 160.438 178.435 160.549 178.239 160.745C178.043 160.941 177.932 161.208 177.932 161.485V163.872C177.932 164.149 178.043 164.416 178.239 164.612C178.435 164.808 178.701 164.919 178.979 164.919C179.257 164.919 179.523 164.808 179.719 164.612C179.915 164.416 180.026 164.149 180.026 163.872V158.017C180.026 157.739 179.915 157.473 179.719 157.277C179.523 157.08 179.257 156.97 178.979 156.97C178.701 156.97 178.435 157.08 178.239 157.277C178.043 157.473 177.932 157.739 177.932 158.017C177.929 159.42 177.807 160.821 177.569 162.204L179.628 162.483C179.464 160.816 179.387 159.141 179.398 157.466C179.394 157.215 179.301 156.974 179.135 156.786C178.969 156.598 178.741 156.476 178.492 156.442C178.244 156.408 177.991 156.465 177.781 156.601C177.571 156.738 177.416 156.946 177.346 157.186C177.032 158.519 176.648 159.831 176.279 161.136L178.191 160.885L178.044 160.327C177.946 158.994 175.853 158.987 175.951 160.327C175.974 160.892 176.121 161.445 176.383 161.946C176.788 162.797 178.051 162.497 178.295 161.695C178.693 160.383 179.049 159.071 179.363 157.745L177.304 157.466C177.294 159.141 177.371 160.816 177.535 162.483C177.639 163.558 179.37 164.018 179.586 162.762C179.865 161.186 180.012 159.589 180.026 157.989H177.932V163.844H180.026V161.457H177.932C178.055 164.09 177.141 166.665 175.385 168.631C175.113 168.94 174.82 169.229 174.506 169.496C174.011 169.971 173.557 169.901 173.159 169.28C172.168 168.868 171.143 167.807 170.277 167.186C169.412 166.565 168.226 167.794 168.84 168.617C170.445 170.752 172.838 173.132 175.818 172.106C178.951 170.997 179.377 166.754 179.14 163.962C179.063 163.034 177.674 162.406 177.193 163.439C176.495 164.911 175.797 166.377 175.099 167.856C174.738 168.408 174.522 169.041 174.471 169.699C174.701 171.269 176.606 171.011 177.779 170.92C182.322 170.578 181.603 164.137 181.079 160.899C180.905 159.824 179.342 159.992 179.063 160.899C178.841 161.536 178.726 162.206 178.721 162.881H180.814C180.738 161.681 180.403 160.512 179.83 159.454C179.737 159.298 179.604 159.169 179.446 159.079C179.288 158.99 179.109 158.943 178.927 158.943C178.745 158.943 178.566 158.99 178.407 159.079C178.249 159.169 178.117 159.298 178.023 159.454C177.399 160.532 176.978 161.714 176.781 162.944L178.874 163.223V158.833C178.874 158.556 178.764 158.289 178.568 158.093C178.371 157.897 178.105 157.787 177.828 157.787C177.55 157.787 177.284 157.897 177.088 158.093C176.891 158.289 176.781 158.556 176.781 158.833C176.774 161.19 176.62 163.544 176.32 165.881L178.379 165.602C178.142 164.461 177.74 163.361 177.186 162.336C177.092 162.18 176.96 162.051 176.801 161.961C176.643 161.872 176.464 161.825 176.282 161.825C176.1 161.825 175.921 161.872 175.763 161.961C175.604 162.051 175.472 162.18 175.378 162.336C174.468 164.522 173.16 166.519 171.519 168.226L173.271 168.687L172.964 166.942C172.803 166.014 171.492 165.986 171.052 166.691C170.705 167.216 170.47 167.806 170.361 168.425C170.251 169.045 170.271 169.68 170.417 170.292C170.591 171.283 171.847 171.178 172.329 170.543C173.081 169.542 173.755 168.486 174.346 167.382L172.538 166.321C172.056 167.364 171.727 168.471 171.561 169.608C171.436 170.529 172.531 171.492 173.313 170.627C174.813 168.985 175.899 167.009 176.481 164.863C176.739 163.914 175.427 163.013 174.729 163.844C173.446 165.382 172.279 167.015 171.24 168.729L173.152 169.538L175.281 161.604C175.337 161.362 175.306 161.108 175.193 160.887C175.081 160.666 174.894 160.491 174.665 160.395C174.437 160.298 174.181 160.285 173.944 160.358C173.707 160.431 173.503 160.586 173.369 160.794L169.182 166.858C168.4 167.982 170.194 168.952 170.989 167.912L176.683 160.375C177.493 159.301 175.678 158.282 174.876 159.315L174.82 159.315Z" fill="#E6E6E6"/>
<path d="M263.846 184.5C272.22 179.378 278.877 171.736 286.274 165.344C294.299 158.415 302.721 151.96 311.395 145.847C328.24 133.983 345.929 123.369 363.605 112.783C363.834 112.638 363.998 112.41 364.062 112.147C364.126 111.883 364.086 111.605 363.949 111.371C363.813 111.137 363.591 110.965 363.33 110.891C363.069 110.817 362.79 110.848 362.551 110.976C344.876 121.562 327.179 132.155 310.334 144.039C302.386 149.622 294.627 155.54 287.188 161.82C279.093 168.659 271.885 177.173 262.765 182.692C261.613 183.39 262.667 185.205 263.818 184.5H263.846Z" fill="#E6E6E6"/>
<path d="M390.631 80.2776C381.559 81.1987 371.79 83.5086 366.208 91.443C361.386 98.2679 361.49 110.173 366.019 117.179C371.162 125.142 381.671 125.428 389.835 122.853C398 120.278 406.45 115.763 406.373 106.007C406.331 100.773 404.44 95.323 402.354 90.5777C400.554 86.4814 397.365 82.9015 392.536 83.3551C391.203 83.4807 391.189 85.5742 392.536 85.4486C399.005 84.8484 401.084 92.5316 402.619 97.3816C404.015 101.911 405.306 107.27 403.115 111.771C400.923 116.272 395.641 118.568 391.126 120.215C386.242 121.987 380.875 123.069 375.774 121.611C365.67 118.784 362.879 105.979 365.789 96.8931C369.138 86.4255 381.001 83.3481 390.666 82.3711C391.992 82.2385 392.005 80.145 390.666 80.2776H390.631Z" fill="#E6E6E6"/>
<path d="M404.587 161.227C395.515 162.148 385.746 164.458 380.164 172.392C375.342 179.217 375.447 191.122 379.975 198.129C385.118 206.091 395.627 206.377 403.791 203.802C411.956 201.227 420.406 196.712 420.329 186.956C420.288 181.722 418.397 176.272 416.31 171.527C414.51 167.431 411.321 163.851 406.492 164.304C405.159 164.43 405.145 166.524 406.492 166.398C412.961 165.798 415.04 173.481 416.575 178.331C417.971 182.86 419.262 188.219 417.071 192.72C414.88 197.221 409.597 199.517 405.082 201.164C400.198 202.937 394.832 204.018 389.731 202.56C379.626 199.734 376.835 186.928 379.745 177.842C383.095 167.375 394.957 164.297 404.622 163.32C405.948 163.188 405.962 161.094 404.622 161.227H404.587Z" fill="#E6E6E6"/>
<path d="M376.947 100.661L383.555 108.198C383.686 108.324 383.847 108.415 384.023 108.46C384.199 108.506 384.384 108.505 384.559 108.458C384.735 108.411 384.896 108.319 385.025 108.192C385.155 108.064 385.249 107.905 385.3 107.731C386.695 104.06 386.43 100.257 386.758 96.3977C387.12 92.4091 388.121 88.5048 389.724 84.8345C392.943 77.3902 398.402 71.1338 405.34 66.9349C406.492 66.2371 405.438 64.4227 404.287 65.1275C397.445 69.2477 391.956 75.2776 388.495 82.4758C386.801 85.9786 385.626 89.7092 385.006 93.5505C384.309 98.0795 384.944 102.825 383.269 107.172L385.02 106.705L378.447 99.1821C377.554 98.1702 376.082 99.6566 376.968 100.661H376.947Z" fill="#E6E6E6"/>
<path d="M267.217 192.658C303.21 191.56 339.212 191.327 375.223 191.96C375.494 191.95 375.751 191.835 375.939 191.64C376.127 191.445 376.232 191.184 376.232 190.913C376.232 190.642 376.127 190.381 375.939 190.186C375.751 189.991 375.494 189.876 375.223 189.866C339.221 189.224 303.219 189.457 267.217 190.564C265.87 190.606 265.863 192.699 267.217 192.658Z" fill="#E6E6E6"/>
<path d="M382.746 172.015C395.05 176.845 406.885 182.792 418.103 189.782C419.248 190.48 420.302 188.687 419.157 187.975C407.791 180.898 395.799 174.881 383.332 169.999C382.083 169.503 381.538 171.527 382.78 172.015H382.746Z" fill="#E6E6E6"/>
<path d="M405.089 162.532C392.612 177.078 385.385 195.395 384.567 214.542C384.511 215.889 386.604 215.889 386.66 214.542C387.453 195.944 394.463 178.151 406.569 164.011C407.441 162.992 405.969 161.506 405.089 162.532Z" fill="#E6E6E6"/>
<path d="M126.002 185.058L203.995 184.039L212.962 183.921C214.574 183.921 216.186 183.865 217.798 183.858C220.066 183.858 221.594 185.742 221.552 188.045C221.448 192.93 218.377 192.755 214.358 192.93L204.665 193.369L165.197 195.107C158.129 195.421 151.053 195.805 143.984 196.049C137.606 196.244 125.478 194.165 128.311 184.884C128.702 183.593 126.685 183.041 126.288 184.325C124.892 188.889 127.362 193.523 131.34 195.917C136.985 199.308 144.424 198.157 150.655 197.877L199.111 195.679L210.876 195.156C213.89 195.016 218.084 195.63 220.854 194.228C224.106 192.588 224.678 186.077 222.627 183.334C221.573 181.939 220.094 181.813 218.44 181.75C214.1 181.583 209.683 181.869 205.335 181.925L181.177 182.246L125.974 182.944C125.703 182.954 125.446 183.068 125.258 183.263C125.07 183.459 124.964 183.719 124.964 183.99C124.964 184.262 125.07 184.522 125.258 184.717C125.446 184.913 125.703 185.027 125.974 185.037L126.002 185.058Z" fill="#E6E6E6"/>
<path d="M355.14 239.417L332.485 225.768L339.101 251.377L343.089 242.047L349.741 250.967L351.713 249.496L345.062 240.576L355.14 239.417Z" fill="#64D959"/>
<path d="M388.946 254.118H350.567V267.377H388.946V254.118Z" fill="#64D959"/>
<path d="M221.087 131.252L243.741 117.603L237.125 143.212L233.137 133.882L226.486 142.802L224.513 141.331L231.165 132.411L221.087 131.252Z" fill="#3F3D56"/>
<path d="M225.659 146.651H187.28V159.91H225.659V146.651Z" fill="#3F3D56"/>
</svg>
