<svg width="180" height="96" viewBox="0 0 180 96" fill="none" xmlns="http://www.w3.org/2000/svg">
<g clip-path="url(#clip0)">
<path opacity="0.1" d="M7.6325 13.1305C7.92413 14.9902 8.6694 16.7863 8.67588 18.6671C8.70018 24.8128 1.28153 28.5874 0.145803 34.6256C-0.528179 38.2081 1.21834 41.8688 3.68096 44.541C6.14359 47.2132 9.28343 49.1397 12.1754 51.338C20.177 57.4317 26.3446 65.6321 29.9954 75.0315C30.7261 76.9204 31.3547 78.868 31.5621 80.884C31.7128 82.3496 31.6415 83.8494 31.9833 85.2807C33.3361 90.9623 40.1959 93.1672 45.996 93.5352C55.3375 94.118 64.6881 92.5485 73.3344 88.9463C75.2785 88.1321 77.2859 87.2072 79.3726 87.4368C81.0414 87.6208 82.5303 88.5278 83.9949 89.3534C88.3081 91.7864 92.8984 93.686 97.6657 95.0105C100.307 95.7433 103.079 96.3002 105.776 95.8247C113.877 94.3885 118.182 84.5137 126.13 82.3545C131.629 80.8612 137.351 83.4699 142.283 86.3343C147.215 89.1987 152.305 92.4979 157.998 92.506C165.594 92.5158 171.838 86.7382 176.99 81.1299C178.07 79.9526 179.169 78.7215 179.684 77.2054C180.729 74.1277 179.036 70.6706 176.533 68.6025C174.03 66.5344 170.874 65.5085 167.859 64.3263C162.748 62.3223 157.871 59.7624 153.315 56.6923C150.366 54.7056 147.51 52.4584 145.492 49.5272C143.757 46.9999 142.716 44.0704 141.552 41.2304C139.002 35.0115 135.396 28.6916 129.374 25.7735C124.456 23.3895 118.745 23.6566 113.287 23.5931C105.245 23.5035 96.9982 22.5313 89.868 18.7925C83.8459 15.635 78.8996 10.6504 72.7884 7.66554C63.0675 2.92196 51.9549 3.85179 41.4806 4.03091C36.4468 4.11722 30.4636 4.62203 25.6291 2.9643C22.0534 1.7381 20.2129 -0.768029 16.1059 0.241589C10.4888 1.6176 6.73494 7.39359 7.6325 13.1305Z" fill="#64D959"/>
<path d="M156.56 57.8952C156.305 57.0489 156.332 56.1423 156.636 55.3126C157.122 54.0489 158.306 53.137 158.723 51.8457C159.497 49.447 157.41 47.2014 156.13 45.0275C154.956 43.0105 154.424 40.6807 154.606 38.351C154.805 35.8498 155.824 33.4576 155.902 30.9499C155.972 28.6131 155.218 26.3398 154.475 24.1252C153.861 22.2948 153.235 20.4433 152.197 18.8182C150.233 15.7453 146.745 13.814 143.158 13.4949C141.465 13.3434 139.809 13.8971 138.145 13.6805C135.835 13.3809 133.651 12.7784 131.295 12.7035C129.058 12.6367 126.584 12.9217 125.059 14.5696C123.894 15.8316 123.522 17.6538 122.456 19.0022C120.942 20.9156 118.297 21.5718 116.623 23.3435C115.9 24.1265 115.392 25.0854 115.15 26.1256C114.908 27.1658 114.939 28.2515 115.241 29.2758C115.473 30.0314 115.852 30.7333 116.098 31.484C117.133 34.6203 115.774 37.9748 114.953 41.173C114.86 41.4344 114.843 41.7167 114.904 41.9873C115.034 42.3781 115.442 42.5833 115.781 42.8145C116.889 43.5733 117.454 44.9477 117.563 46.2912C117.671 47.6346 117.362 48.9732 117.057 50.2857C116.281 53.6223 115.311 57.1966 112.753 59.4162C112.288 58.3028 111.739 57.227 111.11 56.1984C109.545 53.6483 108.386 50.499 108.367 47.4848C108.366 47.4756 108.366 47.4663 108.367 47.4571C108.367 47.2943 108.375 47.1314 108.385 46.9686C108.587 43.4121 110.117 39.981 110.083 36.4409C110.083 36.1543 110.074 35.8671 110.058 35.5794C109.859 32.549 108.411 29.7465 106.75 27.2094C105.51 25.3155 104.114 23.4868 102.325 22.1076C99.5597 19.9922 96.0456 19.0738 92.593 18.5886C89.1405 18.1033 85.999 17.6473 82.519 17.4128C78.7764 17.1604 74.658 17.0188 71.6996 19.3344C67.842 22.3534 67.6282 28.1848 64.6876 32.1093C62.9379 34.4444 60.1512 36.2487 59.2294 38.9014C58.98 38.2504 58.7722 37.5842 58.6072 36.9066C58.5975 36.861 58.5878 36.817 58.578 36.7714C59.6898 33.5707 59.9484 30.1331 59.3282 26.8007C59.4014 26.2609 59.4387 25.7169 59.44 25.1722C59.4581 24.5795 59.3943 23.9871 59.2504 23.4119C58.834 21.8258 57.6853 20.5573 56.5755 19.3539C56.1715 18.8945 55.7328 18.4671 55.2632 18.0756C52.3589 14.5389 48.2983 12.155 43.8066 11.3497C39.315 10.5445 34.6848 11.3703 30.743 13.6796C26.8012 15.989 23.8045 19.6315 22.2881 23.9567C20.7717 28.2818 20.8344 33.0079 22.465 37.2909C22.3224 38.4015 21.8947 39.4811 21.1089 40.2644C20.7508 40.621 20.2875 41.0672 20.3653 41.5232C20.3411 41.653 20.3593 41.7872 20.4171 41.9058C20.4967 42.0479 20.6075 42.1699 20.7411 42.2625C21.8746 43.1331 23.2862 43.556 24.7089 43.4512C25.9094 46.9976 28.263 50.0343 31.3904 52.072C31.3904 52.1806 31.3866 52.2859 31.379 52.3879C31.379 52.5687 31.3644 52.7478 31.3563 52.9302C31.3563 52.9709 31.3563 53.0116 31.3563 53.0523C31.3563 53.0377 31.3563 53.0214 31.3563 53.0051C31.3563 52.9888 25.715 60.3965 20.5013 60.6717C17.7179 60.8182 15.2893 62.7056 13.4488 64.8632C11.239 67.4524 9.8748 70.4291 9.75815 71.2531C9.54267 72.7643 8.03917 80.1085 8.03917 80.1085H51.3522C50.8402 82.753 50.15 86.1222 50.15 86.1222H120.268C120.106 83.8571 119.927 81.7629 119.76 79.9896H128.575L128.565 80.0433H169.231L171.81 76.153C171.17 64.8176 164.518 58.5857 156.56 57.8952ZM55.3167 45.2327C56.2315 45.7274 57.2143 46.083 58.233 46.2879C58.6753 46.3791 59.1694 46.4361 59.5469 46.1869C59.7971 45.997 59.9823 45.7335 60.0767 45.433L60.0961 45.4818C61.1897 48.2501 62.2023 51.1064 62.3984 54.0799C62.4162 54.36 62.4275 54.64 62.4291 54.9218C62.4335 56.6179 62.0853 58.2963 61.4068 59.8493C57.7438 57.9132 54.2113 55.7373 50.8321 53.3357L50.6037 53.238C50.6037 53.2559 50.6831 53.4594 50.777 53.803C50.7997 53.8861 50.824 53.9773 50.8483 54.075C50.6166 53.3227 50.406 52.554 50.2213 51.7708C50.2003 51.678 50.1792 51.5851 50.1581 51.4923C52.3644 49.8647 54.1365 47.7145 55.3167 45.2327Z" fill="url(#paint0_linear)"/>
<path d="M130.645 13.2799C128.444 13.2131 126.007 13.4948 124.508 15.1167C123.361 16.3576 122.995 18.1521 121.945 19.4792C120.456 21.3633 117.853 22.0082 116.203 23.7522C115.492 24.5229 114.992 25.4667 114.753 26.4907C114.514 27.5146 114.545 28.5834 114.843 29.5917C115.071 30.3343 115.444 31.0263 115.687 31.764C116.706 34.858 115.376 38.1523 114.553 41.3C114.461 41.5581 114.444 41.8373 114.506 42.1044C114.632 42.4888 115.035 42.6907 115.367 42.9187C116.458 43.6661 117.015 45.0177 117.114 46.3383C117.213 47.659 116.916 48.978 116.617 50.2693C115.821 53.689 114.817 57.3708 112.054 59.5252C110.888 60.4453 109.329 61.1911 109.025 62.6567C108.668 64.373 110.298 65.8321 111.861 66.6088C116.451 68.8886 121.78 68.9212 126.801 69.9373C131.222 70.833 135.632 72.5298 140.107 71.95C142.102 71.6928 144.008 70.9876 145.896 70.2891L157.648 65.9363C157.98 65.8344 158.293 65.6763 158.572 65.469C159.28 64.8762 159.304 63.7493 158.919 62.9074C158.533 62.0656 157.833 61.4207 157.217 60.7303C155.876 59.2207 154.855 57.0891 155.588 55.2034C156.074 53.9593 157.232 53.0621 157.642 51.7837C158.403 49.4225 156.346 47.2112 155.098 45.0714C153.944 43.0882 153.421 40.7979 153.598 38.5073C153.794 36.0451 154.797 33.6904 154.87 31.2217C154.938 28.9224 154.198 26.685 153.465 24.5045C152.861 22.7035 152.245 20.8813 151.223 19.2806C149.29 16.2566 145.857 14.3562 142.325 14.0403C140.658 13.8921 139.03 14.436 137.392 14.2243C135.115 13.9426 132.964 13.3499 130.645 13.2799Z" fill="#F7D6C8"/>
<path d="M133.933 77.8966C133.933 77.8966 120.609 69.5005 125.79 59.8212C126.989 57.5838 127.519 55.4668 127.627 53.5339C127.656 53.0246 127.656 52.5141 127.627 52.0048C127.627 51.9804 127.627 51.9559 127.627 51.9315C127.61 51.6688 127.587 51.4104 127.557 51.1564C126.94 46.0464 123.674 42.7163 123.674 42.7163C123.674 42.7163 145.774 36.2336 142.074 42.078C140.357 44.7909 140.87 47.4517 142.021 50.2054C142.142 50.4953 142.272 50.7884 142.406 51.0799C143.735 53.9833 145.578 56.991 146.094 60.2527C147.15 66.9488 133.933 77.8966 133.933 77.8966Z" fill="#EFB7B9"/>
<path opacity="0.1" d="M142.074 42.0782C140.357 44.7912 140.87 47.452 142.021 50.2056C139.888 51.5873 137.441 52.4002 134.91 52.5677C132.379 52.7353 129.847 52.2519 127.553 51.1632C126.94 46.0467 123.674 42.7165 123.674 42.7165C123.674 42.7165 145.776 36.2322 142.074 42.0782Z" fill="black"/>
<path d="M133.931 52.2817C142.166 52.2817 148.841 45.5721 148.841 37.2954C148.841 29.0187 142.166 22.3091 133.931 22.3091C125.696 22.3091 119.021 29.0187 119.021 37.2954C119.021 45.5721 125.696 52.2817 133.931 52.2817Z" fill="#EFB7B9"/>
<path opacity="0.1" d="M127.627 52.0113C127.627 51.9869 127.627 51.9624 127.627 51.938L127.645 51.9087C127.635 51.9445 127.629 51.9787 127.627 52.0113Z" fill="black"/>
<path opacity="0.1" d="M133.933 77.897C133.933 77.897 120.609 69.5009 125.79 59.8216C126.989 57.5841 127.519 55.4672 127.627 53.5343C127.93 55.9248 129.571 58.8966 132.559 63.01C133.855 64.8013 134.412 67.3058 134.589 69.8086L134.885 70.0252L136.344 69.1394C136.506 66.3711 137.063 63.5735 138.382 61.59C141.847 56.3791 142.67 53.7736 142.414 51.0737C143.743 53.9772 145.586 56.9849 146.102 60.2466C147.15 66.9492 133.933 77.897 133.933 77.897Z" fill="black"/>
<path d="M155.293 57.7288C147.354 57.1491 142.332 50.9546 142.332 50.9546C142.754 53.8564 142.067 56.4537 138.365 62.0278C137.055 64.0047 136.499 66.7974 136.337 69.5723L134.879 70.4581L134.582 70.2415C134.406 67.7403 133.85 65.2325 132.552 63.4429C128.852 58.3411 127.206 54.9931 127.635 52.3355C127.635 52.3355 123.564 58.9778 115.633 59.5103C107.703 60.0428 101.041 65.6755 100.404 75.985L102.941 79.4926H127.967L127.958 79.5463H167.975L170.522 75.7146C169.885 64.459 163.231 58.3085 155.293 57.7288Z" fill="#64D959"/>
<path opacity="0.05" d="M155.293 57.7288C147.354 57.1491 142.332 50.9546 142.332 50.9546C142.754 53.8564 142.067 56.4537 138.365 62.0278C137.055 64.0047 136.499 66.7974 136.337 69.5723L134.879 70.4581L134.582 70.2415C134.406 67.7403 133.85 65.2325 132.552 63.4429C128.852 58.3411 127.206 54.9931 127.635 52.3355C127.635 52.3355 123.564 58.9778 115.633 59.5103C107.703 60.0428 101.041 65.6755 100.404 75.985L102.941 79.4926H127.967L127.958 79.5463H167.975L170.522 75.7146C169.885 64.459 163.231 58.3085 155.293 57.7288Z" fill="black"/>
<path opacity="0.1" d="M144.012 30.0526C143.364 31.6647 142.213 33.026 140.956 34.2213C139.219 35.8741 137.035 37.3299 134.647 37.2176C135.949 35.9985 136.892 34.4423 137.371 32.7199C135.864 33.6025 134.725 34.9997 133.286 35.9946C131.848 36.9896 129.814 37.5026 128.408 36.4636C130.962 35.1729 133.084 33.158 134.511 30.6681C131.096 31.5588 129.343 35.4247 126.266 37.1606C124.824 37.9748 123.138 38.2809 121.485 38.2451C120.311 38.2207 119.001 37.9455 118.347 36.9652C117.965 36.3952 117.875 35.6787 117.861 34.9899C117.79 31.8666 119.055 28.8019 121.004 26.3707C122.953 23.9395 125.54 22.0912 128.308 20.6566C129.293 20.1453 130.32 19.6795 131.417 19.5167C132.781 19.318 134.171 19.6095 135.509 19.9189C137.249 20.3195 138.999 20.7592 140.601 21.5473C144.021 23.249 145.515 26.3333 144.012 30.0526Z" fill="black"/>
<path d="M144.012 29.8392C143.364 31.4513 142.213 32.8127 140.956 34.0079C139.219 35.6608 137.035 37.1166 134.647 37.0042C135.949 35.7852 136.892 34.2289 137.371 32.5065C135.864 33.3891 134.725 34.7863 133.286 35.7813C131.848 36.7762 129.814 37.2892 128.408 36.2502C130.962 34.9596 133.084 32.9447 134.511 30.4547C131.096 31.3455 129.343 35.2113 126.266 36.9472C124.824 37.7614 123.138 38.0676 121.485 38.0317C120.311 38.0073 119.001 37.7321 118.347 36.7518C117.965 36.1819 117.875 35.4654 117.861 34.7765C117.79 31.6532 119.055 28.5886 121.004 26.1573C122.953 23.7261 125.54 21.8779 128.308 20.4432C129.293 19.9319 130.32 19.4662 131.417 19.3033C132.781 19.1047 134.171 19.3961 135.509 19.7055C137.249 20.1061 138.999 20.5458 140.601 21.334C144.021 23.0324 145.515 26.1199 144.012 29.8392Z" fill="#F7D6C8"/>
<path d="M41.2036 49.6897C51.6574 49.6897 60.1318 41.172 60.1318 30.6649C60.1318 20.1578 51.6574 11.6401 41.2036 11.6401C30.7499 11.6401 22.2754 20.1578 22.2754 30.6649C22.2754 41.172 30.7499 49.6897 41.2036 49.6897Z" fill="#C3705A"/>
<path d="M58.1762 67.2794C58.1762 67.2794 40.8407 71.7429 40.4113 72.1647C39.982 72.5864 25.8187 73.3339 29.9419 64.6186C31.4568 61.4188 32.087 57.0725 32.2782 52.8533C32.2863 52.6742 32.2944 52.4967 32.3009 52.3192C32.5617 45.247 31.635 38.6845 31.635 38.6845C31.635 38.6845 51.7248 30.7052 50.2456 42.8304C49.8762 45.8462 50.1824 48.8767 50.8532 51.7264C51.0768 52.6774 51.3392 53.6073 51.6308 54.5094C53.9768 61.7786 58.1762 67.2794 58.1762 67.2794Z" fill="#ECB4B6"/>
<path opacity="0.1" d="M50.8516 51.7298C48.1871 53.7155 44.9829 54.8362 41.6676 54.9421C38.3523 55.048 35.0839 54.1341 32.2993 52.3226C32.5601 45.2504 31.6334 38.6879 31.6334 38.6879C31.6334 38.6879 51.7232 30.7086 50.244 42.8338C49.8762 45.8513 50.1824 48.8817 50.8516 51.7298Z" fill="black"/>
<path d="M41.1501 54.6304C50.1436 54.6304 57.4342 47.3026 57.4342 38.2632C57.4342 29.2238 50.1436 21.896 41.1501 21.896C32.1567 21.896 24.866 29.2238 24.866 38.2632C24.866 47.3026 32.1567 54.6304 41.1501 54.6304Z" fill="#ECB4B6"/>
<path opacity="0.1" d="M58.1762 67.2797C58.1762 67.2797 40.8407 71.7431 40.4113 72.1649C39.982 72.5867 25.8187 73.3341 29.9419 64.6188C31.4568 61.419 32.087 57.0727 32.2782 52.8535C32.4402 55.0584 33.6942 60.398 33.8546 62.1746C33.8648 62.2784 33.8854 62.381 33.9162 62.4807C34.1511 63.2705 34.9887 64.1808 35.998 65.0438L36.058 65.0943C37.3135 66.1528 38.8715 66.7825 40.5066 66.8922C42.1416 67.002 43.7691 66.5862 45.1535 65.705C46.5945 64.7925 47.9775 63.7907 49.2946 62.7054C51.1804 61.1405 51.7686 59.0317 51.8415 57.1688C51.8717 56.2746 51.801 55.3798 51.6308 54.5015C53.9768 61.7789 58.1762 67.2797 58.1762 67.2797Z" fill="black"/>
<path d="M80.066 79.61H9.31746C9.31746 79.61 10.7983 72.3831 11.0089 70.8947C11.1239 70.0805 12.467 67.1493 14.6429 64.6041C16.4542 62.4872 18.8439 60.6226 21.5836 60.4777C26.7114 60.2074 32.2636 52.9316 32.2636 52.9316C32.3867 55.0486 33.6861 60.5771 33.8497 62.3911C33.8599 62.495 33.8806 62.5976 33.9113 62.6973C34.1462 63.487 34.9838 64.3973 35.9932 65.2604L36.0531 65.3109C37.3084 66.3698 38.8663 66.9999 40.5014 67.11C42.1365 67.2201 43.7641 66.8044 45.1486 65.9231C46.5894 65.0103 47.9724 64.0085 49.2897 62.9236C51.1756 61.3587 51.7637 59.2499 51.8366 57.387C51.8737 56.1508 51.7246 54.916 51.3943 53.7247C51.3019 53.386 51.2323 53.1873 51.2226 53.1694L51.4478 53.2655C51.4478 53.2655 61.0277 60.2677 69.804 63.1304C70.8326 63.467 71.8032 63.9613 72.6814 64.596C73.3928 65.1129 74.0478 65.704 74.6353 66.3596C75.8232 67.7099 76.806 69.2293 77.5516 70.8686C79.5865 75.2035 80.066 79.61 80.066 79.61Z" fill="#64D959"/>
<path opacity="0.05" d="M80.066 79.61H9.31746C9.31746 79.61 10.7983 72.3831 11.0089 70.8947C11.1239 70.0805 12.467 67.1493 14.6429 64.6041C16.4542 62.4872 18.8439 60.6226 21.5836 60.4777C26.7114 60.2074 32.2636 52.9316 32.2636 52.9316C32.3867 55.0486 33.6861 60.5771 33.8497 62.3911C33.8599 62.495 33.8806 62.5976 33.9113 62.6973C34.1462 63.487 34.9838 64.3973 35.9932 65.2604L36.0531 65.3109C37.3084 66.3698 38.8663 66.9999 40.5014 67.11C42.1365 67.2201 43.7641 66.8044 45.1486 65.9231C46.5894 65.0103 47.9724 64.0085 49.2897 62.9236C51.1756 61.3587 51.7637 59.2499 51.8366 57.387C51.8737 56.1508 51.7246 54.916 51.3943 53.7247C51.3019 53.386 51.2323 53.1873 51.2226 53.1694L51.4478 53.2655C51.4478 53.2655 61.0277 60.2677 69.804 63.1304C70.8326 63.467 71.8032 63.9613 72.6814 64.596C73.3928 65.1129 74.0478 65.704 74.6353 66.3596C75.8232 67.7099 76.806 69.2293 77.5516 70.8686C79.5865 75.2035 80.066 79.61 80.066 79.61Z" fill="black"/>
<path opacity="0.1" d="M48.9787 32.7668C49.3999 34.3952 49.9508 36.2043 51.3976 37.0527C51.5914 37.1461 51.7701 37.2686 51.9274 37.4159C52.2838 37.8051 52.1752 38.4125 52.1218 38.9401C51.9371 40.7509 52.7115 42.5861 53.9817 43.8839C55.2519 45.1818 56.9709 45.9748 58.7449 46.3396C59.1791 46.4292 59.6668 46.4862 60.041 46.2403C60.294 46.0471 60.4799 45.7787 60.5725 45.4733C61.0666 44.1526 60.8576 42.6692 60.4445 41.3208C60.0313 39.9725 59.4222 38.686 59.1095 37.31C58.3658 34.0451 59.3509 30.671 59.7948 27.3506C59.9422 26.2466 60.0281 25.1083 59.7446 24.0319C59.3347 22.4719 58.2038 21.2213 57.1118 20.0374C56.5237 19.4007 55.9226 18.7526 55.1676 18.3357C52.9416 17.1128 50.0755 18.1989 47.6988 17.3082C46.7477 16.9516 45.9393 16.3002 45.0336 15.8426C43.1105 14.8656 40.831 14.8118 38.7232 15.2564C36.6153 15.701 34.6404 16.6145 32.6849 17.5199L31.1895 18.2006C29.0833 19.1776 26.8264 20.2817 25.6923 22.3254C24.4853 24.5009 24.8207 27.2855 23.6137 29.4611C23.2475 30.1124 22.7372 30.7378 22.6416 31.4868C22.5768 32.0275 22.742 32.5681 22.8959 33.0908C23.2718 34.3626 23.5991 35.6702 23.5699 36.999C23.5407 38.3278 23.1195 39.6892 22.1831 40.6239C21.7877 41.0179 21.2596 41.5227 21.5026 42.0259C21.5823 42.1666 21.6932 42.287 21.8266 42.3777C22.5957 42.9647 23.4998 43.3471 24.4551 43.4895C25.4104 43.6318 26.3859 43.5294 27.2914 43.1919C28.001 42.9199 28.6718 42.4835 29.0736 41.8403C29.3407 41.3691 29.5341 40.8594 29.6471 40.3291C30.1591 38.4125 30.6743 36.4633 30.6338 34.4782C30.6111 33.3383 30.4037 32.1887 30.5689 31.0585C30.7342 29.9284 31.3904 28.7641 32.484 28.4531C33.294 28.2202 34.1608 28.5019 35.0065 28.4938C36.2249 28.484 37.7187 27.1259 38.8479 27.5249C39.82 27.8701 40.5896 29.7395 41.3932 30.456C43.4313 32.2847 46.2763 33.2406 48.9787 32.7668Z" fill="black"/>
<path d="M48.9787 32.5537C49.3999 34.1821 49.9508 35.9913 51.3975 36.8397C51.5886 36.9312 51.765 37.0508 51.9208 37.1947C52.2773 37.5839 52.1687 38.1913 52.1153 38.7189C51.9306 40.5297 52.705 42.3649 53.9752 43.6628C55.2454 44.9606 56.9644 45.7537 58.7384 46.1184C59.1726 46.208 59.6603 46.265 60.0345 46.0191C60.2875 45.8259 60.4734 45.5575 60.566 45.2521C61.0601 43.9315 60.8511 42.448 60.438 41.0996C60.0248 39.7513 59.4157 38.4649 59.103 37.0889C58.3593 33.8239 59.3444 30.4498 59.7883 27.1295C59.9357 26.0254 60.0216 24.8871 59.7381 23.8108C59.3282 22.2507 58.1973 21.0001 57.1053 19.8162C56.5172 19.1795 55.9161 18.5314 55.1611 18.1145C52.9351 16.8916 50.069 17.9778 47.6923 17.087C46.7412 16.7304 45.9328 16.079 45.0271 15.6214C43.104 14.6444 40.8245 14.5907 38.7166 15.0352C36.6088 15.4798 34.6339 16.3933 32.6784 17.2987L31.2024 17.9826C29.0962 18.9597 26.8393 20.0638 25.7052 22.1074C24.4982 24.283 24.8336 27.0676 23.6266 29.2431C23.2604 29.8945 22.7501 30.5198 22.6545 31.2689C22.5897 31.8095 22.755 32.3502 22.9089 32.8729C23.2847 34.1447 23.612 35.4523 23.5829 36.7811C23.5537 38.1099 23.1325 39.4712 22.196 40.4059C21.8007 40.8 21.2725 41.3048 21.5155 41.808C21.5953 41.9487 21.7061 42.069 21.8396 42.1597C22.6087 42.7468 23.5127 43.1292 24.468 43.2715C25.4233 43.4139 26.3989 43.3115 27.3043 42.9739C28.014 42.702 28.6847 42.2656 29.0865 41.6224C29.3536 41.1512 29.547 40.6415 29.66 40.1112C30.172 38.1945 30.6872 36.2453 30.6467 34.2603C30.624 33.1204 30.4166 31.9707 30.5819 30.8406C30.7471 29.7105 31.4033 28.5462 32.4969 28.2352C33.307 28.0023 34.1738 28.284 35.0195 28.2759C36.2378 28.2661 37.7316 26.908 38.8608 27.307C39.8329 27.6522 40.6025 29.5216 41.4061 30.2381C43.4313 32.0733 46.2763 33.0292 48.9787 32.5537Z" fill="#C3705A"/>
<path d="M103.224 39.5054H66.1069V71.4972H103.224V39.5054Z" fill="#463A3E"/>
<path opacity="0.05" d="M103.224 39.5054H66.1069V71.4972H103.224V39.5054Z" fill="black"/>
<path d="M97.9023 85.5279H66.1474C66.5573 83.2041 67.7562 80.6573 70.0924 77.9118C71.9371 75.7535 73.4459 73.3268 74.5673 70.7142C74.8686 70.0161 75.1387 69.3165 75.3774 68.6152C76.0791 66.5328 76.5566 64.3807 76.8015 62.1959C76.8015 62.1341 76.816 62.0722 76.8225 62.0103C76.9863 60.5007 77.0523 58.982 77.0202 57.4638C77.0202 57.3547 77.0202 57.2488 77.0202 57.1381C76.9067 53.4127 76.2936 49.7198 75.1975 46.1593L75.157 46.0323C74.8119 44.9396 74.5592 44.3257 74.5592 44.3257C74.5592 44.3257 75.1894 43.9821 76.2296 43.4757L76.317 43.4333C80.1422 41.5867 89.1972 37.7339 93.1893 40.4794L93.2541 40.5233C94.6506 41.5232 95.4024 43.3584 95.0492 46.415C95.0492 46.4264 95.0492 46.4394 95.0492 46.4508C95.0492 46.5078 95.0362 46.5631 95.0314 46.6136C94.8175 48.7203 94.7164 50.8371 94.7284 52.9547C94.7284 53.0605 94.7284 53.1664 94.7284 53.2804C94.7284 53.7765 94.7338 54.2791 94.7446 54.7883C94.7446 54.8567 94.7446 54.9251 94.7446 54.9935C94.777 56.6382 94.8499 58.3366 94.952 60.0595C95.0929 62.4483 95.2938 64.8812 95.5255 67.2685C95.6243 68.2895 95.7313 69.304 95.8495 70.3022C95.8625 70.4194 95.8755 70.5399 95.8884 70.6556C96.0245 71.872 96.1655 73.064 96.3097 74.2202L96.3194 74.2951C96.8702 78.8872 97.4794 82.8964 97.9023 85.5279Z" fill="#EFB7B9"/>
<path opacity="0.1" d="M95.0362 46.4212C95.0362 46.4326 95.0362 46.4456 95.0362 46.457C94.8079 48.6205 94.6998 50.7951 94.7122 52.9707C94.7122 53.0765 94.7122 53.1824 94.7122 53.2964C92.58 55.7838 89.7185 57.5283 86.5386 58.2796C83.3586 59.0309 80.0236 58.7503 77.0121 57.4781C77.0121 57.369 77.0121 57.2632 77.0121 57.1525C76.8979 53.3824 76.271 49.6458 75.1489 46.0467C74.8038 44.954 74.5511 44.3401 74.5511 44.3401C74.5511 44.3401 75.1813 43.9965 76.2215 43.49C80.0094 41.6499 89.2523 37.6766 93.2411 40.5296C94.6361 41.5294 95.3878 43.3647 95.0362 46.4212Z" fill="black"/>
<path d="M83.0083 58.361C91.5373 58.361 98.4515 51.4116 98.4515 42.839C98.4515 34.2664 91.5373 27.3169 83.0083 27.3169C74.4792 27.3169 67.565 34.2664 67.565 42.839C67.565 51.4116 74.4792 58.361 83.0083 58.361Z" fill="#EFB7B9"/>
<path opacity="0.1" d="M83.8264 85.422H50.8807C50.8807 85.422 52.3616 78.1951 52.5722 76.7067C52.6872 75.8925 54.0303 72.9614 56.2062 70.4162C59.0009 68.1754 62.4623 66.941 66.0372 66.9102C72.338 66.8157 74.172 68.9962 74.6693 70.6083C74.8431 71.1488 74.8875 71.7229 74.799 72.284L75.9914 74.0199L83.8264 85.422Z" fill="black"/>
<path d="M83.7211 85.5275H50.7754C50.7754 85.5275 52.2562 78.3006 52.4669 76.8122C52.5819 75.998 53.925 73.0669 56.1008 70.5216C58.8956 68.2809 62.357 67.0464 65.9319 67.0157C72.2326 66.9212 74.0667 69.1017 74.564 70.7138C74.7378 71.2543 74.7822 71.8284 74.6937 72.3894L75.8861 74.1253L83.7211 85.5275Z" fill="#64D959"/>
<path opacity="0.1" d="M119.685 85.422H85.1663C86.8124 81.9013 91.1268 72.5152 91.3666 70.3445C91.4589 69.5042 92.35 68.7161 93.5295 68.0468C93.902 67.8324 94.2854 67.6378 94.6782 67.4638L94.7495 67.4312C94.9655 67.3357 95.1842 67.2472 95.4056 67.1658C98.3915 66.0672 101.672 66.0932 104.64 67.2391C107.474 68.322 111.121 69.781 113.96 71.1473L113.982 71.1587C114.711 71.5104 115.39 71.854 115.988 72.1846C117.184 72.8441 118.057 73.4466 118.392 73.9286C118.546 74.1501 118.716 75.1483 118.903 76.6969C119.151 78.7911 119.421 81.8981 119.685 85.422Z" fill="black"/>
<path d="M119.79 85.5274H85.2716C86.9177 82.0068 91.2321 72.6206 91.4719 70.4499C91.5643 69.6097 92.4553 68.8215 93.6348 68.1523C94.0073 67.9379 94.3907 67.7433 94.7835 67.5693L94.8548 67.5367C95.0708 67.4412 95.2895 67.3527 95.5109 67.2713C98.4968 66.1727 101.778 66.1987 104.746 67.3446C107.579 68.4275 111.226 69.8865 114.065 71.2528L114.088 71.2642C114.817 71.6159 115.495 71.9595 116.093 72.2901C117.289 72.9496 118.162 73.5521 118.498 74.0341C118.651 74.2556 118.822 75.2538 119.008 76.8024C119.257 78.8965 119.526 82.0052 119.79 85.5274Z" fill="#64D959"/>
<path opacity="0.1" d="M114.235 68.5026C114.235 69.003 114.221 69.504 114.194 70.0056C114.179 70.2499 114.161 70.4941 114.139 70.7384C114.125 70.9143 114.107 71.0885 114.089 71.2627L114.066 71.4647C113.802 73.8324 113.315 76.1871 113.256 78.5662C113.256 78.6785 113.256 78.7909 113.256 78.9033C113.245 81.1374 113.605 83.3374 114.092 85.5277H94.2132C94.1808 85.1222 94.1646 84.7134 94.1695 84.3112C94.1695 83.9481 94.1921 83.585 94.2294 83.2202C94.5356 80.2223 96.0602 77.4165 96.2902 74.4381L96.3 74.3014C96.3145 74.0783 96.3226 73.8535 96.3194 73.6288C96.3194 73.6093 96.3194 73.5897 96.3194 73.5686C96.2942 72.5838 96.1434 71.6064 95.8706 70.6602C95.8577 70.613 95.8447 70.5658 95.8317 70.5186C95.5539 69.58 95.2295 68.6561 94.8596 67.7502L94.7884 67.5695C94.2488 66.2146 93.6818 64.8712 93.2978 63.5245C92.9926 62.5216 92.8349 61.4793 92.8296 60.4305C92.8296 60.2432 92.8409 60.056 92.8555 59.8687C92.8685 59.7156 92.8863 59.5626 92.909 59.4079C92.9444 59.1662 92.992 58.9265 93.0516 58.6897C93.3756 57.4065 94.0674 56.2031 94.73 55.0111C95.4672 53.684 96.1703 52.3715 96.2967 50.9759C96.3127 50.7995 96.3186 50.6222 96.3145 50.4451C96.3095 50.2169 96.2878 49.9894 96.2497 49.7644C96.0796 48.7743 95.5725 47.8836 95.1561 46.97C95.114 46.8772 95.0719 46.7844 95.0314 46.6899C95.0314 46.6753 95.0184 46.6606 95.0136 46.646C94.2035 44.7652 93.7336 42.7589 93.2395 40.7625C93.2184 40.6762 93.1974 40.5899 93.1747 40.5052C93.0532 40.0167 92.9284 39.5282 92.7956 39.0396C92.0697 36.3756 91.0361 33.6838 89.0692 31.7606C87.1024 29.8375 83.9658 28.8637 81.5031 30.0882C79.3726 31.1549 78.2191 33.5421 77.699 35.874C77.179 38.2059 77.1368 40.6404 76.4612 42.9332C76.4126 43.1004 76.3586 43.267 76.2992 43.4331C76.2701 43.5178 76.2409 43.596 76.2117 43.6888C75.9217 44.5193 75.5637 45.3416 75.1781 46.1591L75.1376 46.2454C73.9063 48.8785 72.4757 51.4661 72.4303 54.1123V54.1465C72.4303 54.2181 72.4303 54.2881 72.4303 54.3598C72.4387 54.9887 72.5336 55.6134 72.7122 56.2162C73.0363 57.3007 73.6227 58.2468 74.3064 59.1473C74.4415 59.3243 74.5797 59.4996 74.7212 59.6733C75.4017 60.5136 76.1405 61.3278 76.7869 62.1941L76.808 62.2218C77.2995 62.8616 77.7144 63.5574 78.0441 64.2947C78.435 65.2183 78.6391 66.2108 78.6447 67.2145C78.6502 68.2181 78.4571 69.2129 78.0765 70.1408C77.893 70.5696 77.6825 70.9862 77.4463 71.3881C77.0299 72.1111 76.5714 72.8146 76.2101 73.5669C76.0886 73.8193 75.9801 74.0766 75.8861 74.3372C75.076 76.4346 74.901 78.7551 74.24 80.9192C73.7281 82.5808 72.9314 84.1398 71.8859 85.526H50.824C51.0687 84.3226 52.2822 78.361 52.4733 77.0224C52.5884 76.2082 53.9315 73.2771 56.1073 70.7319C55.9243 70.8768 55.7477 71.0234 55.5775 71.1699C54.2054 72.3452 53.0165 73.7208 52.0505 75.2507C52.0975 75.1042 52.1461 74.956 52.1947 74.8094C52.4912 73.9203 52.8119 73.0393 53.1376 72.1698C54.0805 69.6653 55.1304 67.1103 57.0098 65.2115C58.0709 64.14 59.3622 63.3144 60.3732 62.1957C62.1553 60.227 62.8925 57.4994 62.8714 54.8255C62.8714 54.5487 62.8601 54.2735 62.8423 53.9983C62.6495 51.0671 61.6531 48.2614 60.5741 45.5305C59.9941 44.0649 59.3784 42.5245 59.406 40.9709C59.4077 40.753 59.4234 40.5355 59.4529 40.3196C59.8985 37.1002 63.1388 35.1722 65.0846 32.5748C67.9781 28.7106 68.1888 22.9672 71.9848 20.0002C74.901 17.7204 78.9514 17.8605 82.634 18.108C86.059 18.3392 89.1502 18.787 92.5493 19.2658C95.9484 19.7445 99.3977 20.6434 102.124 22.749C103.885 24.1071 105.259 25.9065 106.479 27.771C108.112 30.269 109.54 33.0275 109.736 36.0092C109.75 36.2225 109.759 36.4342 109.759 36.6442C109.793 40.1291 108.287 43.5064 108.088 47.0059C108.08 47.1687 108.074 47.3315 108.072 47.4944C108.071 47.503 108.071 47.5118 108.072 47.5204C108.036 50.5542 109.195 53.7394 110.771 56.3139C113.011 59.9829 114.209 64.1981 114.235 68.5026Z" fill="black"/>
<path d="M114.235 68.5028C114.235 68.9327 114.219 69.3643 114.194 69.7925C114.179 70.0368 114.161 70.2811 114.139 70.5253C114.118 70.7696 114.093 71.0117 114.066 71.2516C113.802 73.6193 113.315 75.974 113.256 78.3531C113.256 78.5355 113.256 78.7195 113.256 78.9019C113.268 81.1345 113.644 83.3361 114.139 85.5263H94.231C94.1937 85.1208 94.1711 84.7121 94.1678 84.3099C94.1636 83.8748 94.1836 83.4399 94.2278 83.0071C94.534 80.0092 96.0585 77.2035 96.2886 74.2251C96.3048 74.0069 96.3161 73.7887 96.3178 73.5737C96.3178 73.5232 96.3178 73.4711 96.3178 73.4207C96.297 72.3666 96.1341 71.3203 95.8333 70.3104C95.5555 69.3719 95.2311 68.4479 94.8612 67.5421C94.3007 66.127 93.6996 64.7217 93.2978 63.3082C93.0147 62.371 92.8572 61.4001 92.8296 60.421C92.825 60.1624 92.8337 59.9036 92.8555 59.6459C92.8685 59.4928 92.8863 59.3397 92.909 59.185C92.9444 58.9434 92.992 58.7037 93.0515 58.4669C93.3756 57.1837 94.0674 55.9803 94.73 54.7883C95.4688 53.4595 96.1752 52.1438 96.2999 50.7466C96.3097 50.6407 96.3145 50.5333 96.3178 50.4209C96.3254 50.1215 96.3037 49.822 96.253 49.5269C96.0828 48.5368 95.5757 47.6461 95.1594 46.7325C95.1172 46.6397 95.0751 46.5469 95.0346 46.4525C94.2132 44.5602 93.7385 42.5443 93.2427 40.525C93.1001 39.9486 92.9543 39.3721 92.8004 38.8005C92.0746 36.1364 91.0409 33.4447 89.0741 31.5215C87.1072 29.5984 83.9755 28.6441 81.5145 29.8752C79.384 30.9418 78.2304 33.3291 77.7104 35.6609C77.1903 37.9928 77.1482 40.4273 76.4726 42.7201C76.398 42.9725 76.3106 43.2249 76.2279 43.4757C75.9266 44.3339 75.5507 45.1856 75.1554 46.0323C73.8901 48.7339 72.4173 51.3914 72.4481 54.1125V54.1467C72.4565 54.7756 72.5514 55.4003 72.73 56.0031C73.0541 57.0877 73.6406 58.0338 74.3243 58.9343C74.4593 59.1112 74.5975 59.2865 74.739 59.4602C75.4276 60.3103 76.1745 61.1326 76.8258 62.0087C77.3173 62.6486 77.7322 63.3443 78.0619 64.0817C78.4528 65.0053 78.6569 65.9978 78.6625 67.0014C78.6681 68.0051 78.4749 68.9998 78.0943 69.9277C77.9109 70.3565 77.7003 70.7732 77.4641 71.1751C77.0477 71.8981 76.5892 72.6016 76.2279 73.3539C76.1064 73.6063 75.9979 73.8636 75.9039 74.1241C75.0938 76.2215 74.9188 78.542 74.2578 80.7062C73.7188 82.4533 72.8661 84.0864 71.7417 85.5247H50.7754C50.7754 85.5247 52.2562 78.2978 52.4669 76.8094C52.5722 76.0652 53.7079 73.5526 55.5711 71.1702C55.7331 70.952 55.9178 70.7338 56.1008 70.5188C54.5773 71.7291 53.2568 73.1773 52.1898 74.8081L52.0456 75.036C52.3826 73.9955 52.7536 72.968 53.1344 71.9551C54.0773 69.4506 55.1271 66.8956 57.0065 64.9969C58.0677 63.9254 59.359 63.0998 60.3699 61.981C62.1002 60.0644 62.8488 57.4215 62.8682 54.816C62.8682 54.4675 62.8682 54.1207 62.839 53.7754C62.6462 50.8443 61.6498 48.0385 60.5708 45.3077C60.0184 43.904 59.4367 42.4417 59.4027 40.9533C59.3952 40.6664 59.4109 40.3794 59.4497 40.0951C59.8968 36.8937 63.1371 34.9738 65.0829 32.3683C67.9765 28.5041 68.1871 22.7606 71.9831 19.7937C74.8994 17.5139 78.9498 17.6539 82.6324 17.9014C86.0574 18.1327 89.1486 18.5805 92.5477 19.0592C95.9467 19.538 99.4009 20.4353 102.124 22.5343C103.885 23.9005 105.259 25.6918 106.479 27.558C108.112 30.0559 109.54 32.8145 109.736 35.7961C109.755 36.0795 109.763 36.3623 109.758 36.6445C109.731 40.0528 108.283 43.365 108.088 46.7944C108.075 47.0257 108.069 47.2553 108.072 47.4881C108.071 47.4968 108.071 47.5055 108.072 47.5142C108.091 50.4844 109.232 53.5817 110.771 56.0911C113.05 59.8248 114.249 64.1226 114.235 68.5028Z" fill="#463A3E"/>
</g>
<defs>
<linearGradient id="paint0_linear" x1="89.9214" y1="86.1189" x2="89.9214" y2="11.049" gradientUnits="userSpaceOnUse">
<stop stop-color="#808080" stop-opacity="0.25"/>
<stop offset="0.54" stop-color="#808080" stop-opacity="0.12"/>
<stop offset="1" stop-color="#808080" stop-opacity="0.1"/>
</linearGradient>
<clipPath id="clip0">
<rect width="180" height="96" fill="white"/>
</clipPath>
</defs>
</svg>
